<svg width="137" height="137" viewBox="0 0 137 137" fill="none" xmlns="http://www.w3.org/2000/svg">
<g id="&#235;&#176;&#176;&#237;&#132;&#176;&#235;&#166;&#172;" clip-path="url(#clip0_242_80)">
<g id="Group">
<path id="Vector" d="M22.8334 34.25C19.8055 34.25 16.9017 35.4528 14.7606 37.5939C12.6196 39.7349 11.4167 42.6388 11.4167 45.6667V91.3333C11.4167 94.3612 12.6196 97.2651 14.7606 99.4061C16.9017 101.547 19.8055 102.75 22.8334 102.75H102.75C105.778 102.75 108.682 101.547 110.823 99.4061C112.964 97.2651 114.167 94.3612 114.167 91.3333V85.625C117.195 85.625 120.099 84.4222 122.24 82.2811C124.381 80.1401 125.583 77.2362 125.583 74.2083V62.7917C125.583 59.7638 124.381 56.8599 122.24 54.7189C120.099 52.5778 117.195 51.375 114.167 51.375V45.6667C114.167 42.6388 112.964 39.7349 110.823 37.5939C108.682 35.4528 105.778 34.25 102.75 34.25H22.8334Z" fill="black"/>
</g>
</g>
<defs>
<clipPath id="clip0_242_80">
<rect width="137" height="137" fill="white"/>
</clipPath>
</defs>
</svg>
