<svg width="146" height="146" viewBox="0 0 146 146" fill="none" xmlns="http://www.w3.org/2000/svg">
<g id="&#237;&#153;&#148;&#235;&#169;&#180;">
<path id="Vector" d="M73.0001 60.8334C74.7237 60.8334 76.1695 60.2494 77.3375 59.0814C78.5055 57.9134 79.0875 56.4696 79.0834 54.7501C79.0834 53.0265 78.4994 51.5807 77.3314 50.4127C76.1634 49.2447 74.7197 48.6627 73.0001 48.6667C71.2765 48.6667 69.8307 49.2507 68.6627 50.4187C67.4947 51.5868 66.9127 53.0305 66.9168 54.7501C66.9168 56.4737 67.5008 57.9195 68.6688 59.0875C69.8368 60.2555 71.2805 60.8375 73.0001 60.8334ZM73.0001 115.583C62.9626 115.583 54.3709 114.898 47.225 113.527C40.0791 112.156 36.5042 110.51 36.5001 108.588V103.417H25.398C21.8494 103.417 18.8584 102.099 16.4251 99.4626C13.9918 96.8265 12.9272 93.7341 13.2314 90.1855L17.3376 41.5188C17.5404 38.3758 18.8077 35.7397 21.1397 33.6105C23.4716 31.4813 26.2598 30.4167 29.5043 30.4167H116.496C119.74 30.4167 122.529 31.4813 124.861 33.6105C127.192 35.7397 128.46 38.3758 128.663 41.5188L132.769 90.1855C133.073 93.7341 132.008 96.8265 129.575 99.4626C127.142 102.099 124.151 103.417 120.602 103.417H109.5V108.588C109.5 110.514 105.925 112.163 98.7752 113.533C91.6252 114.904 83.0335 115.587 73.0001 115.583ZM25.398 91.2501H120.602L116.496 42.5834H29.5043L25.398 91.2501Z" fill="black"/>
</g>
</svg>
