<svg width="135" height="135" viewBox="0 0 135 135" fill="none" xmlns="http://www.w3.org/2000/svg">
<g id="&#236;&#160;&#128;&#236;&#158;&#165;">
<path id="Vector" d="M28.125 39.375H106.875C111.179 39.3748 115.321 41.0193 118.453 43.9722C121.584 46.9251 123.469 50.9631 123.722 55.26L123.75 56.25V78.75C123.75 83.0543 122.106 87.196 119.153 90.3277C116.2 93.4594 112.162 95.3444 107.865 95.5969L106.875 95.625H28.125C23.8207 95.6252 19.679 93.9807 16.5473 91.0278C13.4156 88.0749 11.5306 84.0369 11.2781 79.74L11.25 78.75V56.25C11.2498 51.9457 12.8943 47.804 15.8472 44.6723C18.8001 41.5406 22.8381 39.6556 27.135 39.4031L28.125 39.375ZM101.25 56.25C99.7582 56.25 98.3274 56.8426 97.2725 57.8975C96.2176 58.9524 95.625 60.3832 95.625 61.875C95.625 63.3668 96.2176 64.7976 97.2725 65.8525C98.3274 66.9074 99.7582 67.5 101.25 67.5C102.742 67.5 104.173 66.9074 105.227 65.8525C106.282 64.7976 106.875 63.3668 106.875 61.875C106.875 60.3832 106.282 58.9524 105.227 57.8975C104.173 56.8426 102.742 56.25 101.25 56.25ZM78.75 56.25C77.2582 56.25 75.8274 56.8426 74.7725 57.8975C73.7176 58.9524 73.125 60.3832 73.125 61.875C73.125 63.3668 73.7176 64.7976 74.7725 65.8525C75.8274 66.9074 77.2582 67.5 78.75 67.5C80.2418 67.5 81.6726 66.9074 82.7275 65.8525C83.7824 64.7976 84.375 63.3668 84.375 61.875C84.375 60.3832 83.7824 58.9524 82.7275 57.8975C81.6726 56.8426 80.2418 56.25 78.75 56.25Z" fill="black"/>
</g>
</svg>
